#!OML:ASF F:\VICON\USERDATA\INSTALL\rory3\rory3.ASF
:FULLY-SPECIFIED
:DEGREES
268
root 0.46721 17.0012 4.009 3.9236 -50.3264 10.6449
lowerback -8.79762 1.1862 7.8116
upperback -2.32785 0.937708 -2.91389
thorax 2.67496 0.491084 -7.38748
lowerneck -10.8306 6.40785 -3.35749
upperneck 45.487 10.8403 -2.06246
head 19.3136 3.00885 1.42794
rclavicle 5.75482e-014 7.15625e-015
rhumerus 0.0687163 23.2034 -42.6066
rradius 102.265
rwrist -40.4411
rhand -4.51411 -42.8909
rfingers 7.12502
rthumb 21.2602 -71.7449
lclavicle 5.75482e-014 7.15625e-015
lhumerus 25.9388 -12.6099 28.9442
lradius 74.4232
lwrist 55.0279
lhand -19.6548 -14.9352
lfingers 7.12502
lthumb 6.67308 14.9396
rfemur -10.538 4.60163 -2.2453
rtibia 42.7565
rfoot -4.07598 -13.5874
rtoes -25.7557
lfemur -28.8478 -10.8477 -31.1212
ltibia 33.4037
lfoot -15.0697 -6.62813
ltoes 24.1323
269
root 0.464708 16.9969 4.00255 3.92098 -50.046 10.6978
lowerback -8.80617 1.13544 7.62577
upperback -2.31001 0.883965 -2.84654
thorax 2.6855 0.464462 -7.21354
lowerneck -10.72 6.34521 -3.54634
upperneck 45.4771 10.7667 -2.01881
head 19.256 2.95926 1.46246
rclavicle -1.63003e-014 1.43125e-014
rhumerus 0.0206698 23.3939 -43.1925
rradius 101.716
rwrist -40.0774
rhand -3.72473 -42.2355
rfingers 7.12502
rthumb 22.0183 -71.0022
lclavicle -1.63003e-014 1.43125e-014
lhumerus 25.6083 -12.9534 29.6032
lradius 74.6136
lwrist 54.6162
lhand -19.8669 -15.0049
lfingers 7.12502
lthumb 6.46828 14.8764
rfemur -10.5791 4.49661 -2.19584
rtibia 42.908
rfoot -3.53758 -13.676
rtoes -27.782
lfemur -28.9475 -10.9804 -31.15
ltibia 33.5282
lfoot -14.9976 -6.7933
ltoes 24.5782
270
root 0.462535 16.9849 3.99682 3.7287 -49.8367 10.9813
lowerback -8.74588 1.06409 7.27294
upperback -2.31489 0.823988 -2.82682
thorax 2.63223 0.430266 -6.99523
lowerneck -10.6597 6.30019 -3.62657
upperneck 45.5029 10.727 -2.04935
head 19.255 2.92587 1.45188
rclavicle 2.75317e-014 1.35174e-014
rhumerus -0.337983 23.9637 -43.3375
rradius 101.763
rwrist -40.1948
rhand -2.86702 -41.2809
rfingers 7.12502
rthumb 22.8416 -69.9483
lclavicle 2.75317e-014 1.35174e-014
lhumerus 25.2048 -13.2973 30.1719
lradius 74.8482
lwrist 54.7364
lhand -20.7353 -14.6627
lfingers 7.12502
lthumb 5.62996 15.2425
rfemur -10.575 4.60585 -2.36128
rtibia 43.0594
rfoot -3.77629 -13.6729
rtoes -27.6222
lfemur -29.0214 -11.1281 -31.3389
ltibia 33.6631
lfoot -14.936 -6.92099
ltoes 25.1465
271
root 0.458046 16.979 3.99265 3.62915 -49.7129 11.118
lowerback -8.73962 0.980515 7.11304
upperback -2.28782 0.726621 -2.81407
thorax 2.63859 0.382119 -6.90026
lowerneck -10.6411 6.29459 -3.68329
upperneck 45.5963 10.7884 -2.17542
head 19.3265 2.91409 1.41158
rclavicle 5.72997e-014 2.78299e-014
rhumerus -0.341807 24.2156 -44.0002
rradius 101.349
rwrist -40.2404
rhand -2.24954 -41.1824
rfingers 7.12502
rthumb 23.434 -69.7755
lclavicle 5.72997e-014 2.78299e-014
lhumerus 24.7248 -13.5871 30.5384
lradius 75.1948
lwrist 55.0275
lhand -21.27 -15.1559
lfingers 7.12502
lthumb 5.1136 14.7624
rfemur -10.527 4.78043 -2.46164
rtibia 43.1744
rfoot -4.36976 -13.4363
rtoes -26.8636
lfemur -29.0759 -11.1712 -31.4408
ltibia 33.7912
lfoot -14.9915 -6.98918
ltoes 25.2019
272
root 0.453222 16.9768 3.98826 3.84654 -49.5685 10.8644
lowerback -8.81047 0.795308 7.31354
upperback -2.26155 0.451381 -2.63047
thorax 2.65759 0.247137 -6.85063
lowerneck -10.5812 6.42469 -3.9981
upperneck 45.6406 11.1651 -2.38396
head 19.3451 2.974 1.4278
rclavicle -8.13526e-014 -3.49861e-014
rhumerus 0.0176256 24.8074 -44.5559
rradius 100.948
rwrist -40.2877
rhand -2.67468 -41.599
rfingers 7.12502
rthumb 23.0261 -70.2435
lclavicle -8.13526e-014 -3.49861e-014
lhumerus 23.8396 -13.6998 31.0485
lradius 75.5576
lwrist 54.8065
lhand -20.7473 -16.1878
lfingers 7.12502
lthumb 5.61836 13.7178
rfemur -10.4603 4.90952 -2.26476
rtibia 43.2439
rfoot -4.65195 -13.2059
rtoes -26.8282
lfemur -29.1779 -11.2088 -31.2447
ltibia 33.9096
lfoot -14.9821 -7.10071
ltoes 25.4218
273
root 0.44819 16.972 3.9906 3.87795 -49.437 10.8506
lowerback -8.84974 0.709772 7.37224
upperback -2.27565 0.326543 -2.5373
thorax 2.64275 0.183722 -6.79888
lowerneck -10.0449 6.64587 -3.91453
upperneck 45.2685 11.6211 -2.88033
head 19.0206 3.14535 1.22588
rclavicle -3.4191e-014 6.36111e-015
rhumerus 0.0305137 25.3808 -45.0301
rradius 100.649
rwrist -40.1278
rhand -3.26729 -41.895
rfingers 7.12502
rthumb 22.4574 -70.6093
lclavicle -3.4191e-014 6.36111e-015
lhumerus 23.1876 -14.0486 31.6527
lradius 75.8436
lwrist 54.3111
lhand -19.5089 -16.7806
lfingers 7.12502
lthumb 6.81392 13.0897
rfemur -10.3777 4.96865 -2.26317
rtibia 43.2845
rfoot -4.63667 -13.0476
rtoes -27.6313
lfemur -29.2291 -11.3217 -31.2312
ltibia 34.013
lfoot -14.9241 -7.16378
ltoes 25.9599
274
root 0.446501 16.9707 3.98734 3.84484 -49.2407 10.922
lowerback -8.69057 0.81384 7.25619
upperback -2.36114 0.490549 -2.62943
thorax 2.49303 0.255757 -6.8113
lowerneck -9.64684 6.51083 -3.67766
upperneck 45.199 11.3551 -3.01932
head 18.8996 3.0798 1.05388
rclavicle -4.24405e-014 1.35174e-014
rhumerus -0.707878 25.4624 -45.8053
rradius 100.385
rwrist -39.8882
rhand -3.58847 -42.6913
rfingers 7.12502
rthumb 22.1491 -71.4425
lclavicle -4.24405e-014 1.35174e-014
lhumerus 23.2145 -14.8899 32.0302
lradius 76.1267
lwrist 54.1228
lhand -19.0862 -17.2721
lfingers 7.12502
lthumb 7.22192 12.5847
rfemur -10.3377 4.93753 -2.28664
rtibia 43.3401
rfoot -4.65233 -13.0228
rtoes -28.1214
lfemur -29.3097 -11.5002 -31.2542
ltibia 34.1302
lfoot -14.8777 -7.26747
ltoes 26.3454
275
root 0.448219 16.9719 3.97433 4.08079 -48.921 10.6838
lowerback -8.50316 0.79736 7.30865
upperback -2.46871 0.477119 -2.57548
thorax 2.27371 0.236034 -6.78446
lowerneck -9.53915 6.35741 -3.95847
upperneck 45.3961 11.0891 -2.79005
head 18.9473 2.94618 1.15995
rclavicle -3.95085e-014 -2.3059e-014
rhumerus -1.32276 25.7771 -46.3863
rradius 100.294
rwrist -39.8829
rhand -3.94568 -43.5022
rfingers 7.12502
rthumb 21.8061 -72.2937
lclavicle -3.95085e-014 -2.3059e-014
lhumerus 22.9519 -15.561 32.4504
lradius 76.3756
lwrist 54.0968
lhand -20.2558 -16.9179
lfingers 7.12502
lthumb 6.09288 12.9745
rfemur -10.3738 4.83736 -1.99337
rtibia 43.4377
rfoot -4.43409 -13.279
rtoes -28.7051
lfemur -29.4866 -11.6825 -31.0288
ltibia 34.261
lfoot -14.8106 -7.44255
ltoes 26.4559
276
root 0.449907 16.9682 3.96371 4.34783 -48.6361 10.3868
lowerback -8.38977 0.697307 7.4587
upperback -2.51591 0.337343 -2.46566
thorax 2.13698 0.15901 -6.76767
lowerneck -9.6827 6.28588 -4.34645
upperneck 45.7114 11.0054 -2.53826
head 19.1371 2.85117 1.34013
rclavicle 7.87187e-014 1.59028e-015
rhumerus -1.56879 26.2544 -46.8798
rradius 100.144
rwrist -39.7614
rhand -3.91073 -43.1326
rfingers 7.12502
rthumb 21.8397 -71.9202
lclavicle 7.87187e-014 1.59028e-015
lhumerus 22.4361 -16.0623 32.8845
lradius 76.6518
lwrist 53.7807
lhand -21.6113 -16.4764
lfingers 7.12502
lthumb 4.78415 13.4495
rfemur -10.4107 4.75328 -1.66598
rtibia 43.5621
rfoot -4.18052 -13.548
rtoes -29.0843
lfemur -29.6354 -11.711 -30.828
ltibia 34.4079
lfoot -14.8526 -7.51984
ltoes 25.7776
277
root 0.449705 16.9628 3.95894 4.53069 -48.4534 10.1425
lowerback -8.31691 0.6547 7.61052
upperback -2.49443 0.272682 -2.42663
thorax 2.1077 0.126709 -6.81979
lowerneck -9.91593 6.21569 -4.4042
upperneck 46.0048 10.907 -2.43037
head 19.3848 2.78613 1.39876
rclavicle 2.8128e-014 1.27222e-014
rhumerus -1.7827 26.6195 -47.4969
rradius 99.8505
rwrist -39.3648
rhand -4.01764 -42.6618
rfingers 7.12502
rthumb 21.737 -71.4614
lclavicle 2.8128e-014 1.27222e-014
lhumerus 22.0459 -16.5735 33.2694
lradius 76.9317
lwrist 53.1132
lhand -22.1741 -16.5784
lfingers 7.12502
lthumb 4.24068 13.3591
rfemur -10.4039 4.72137 -1.43991
rtibia 43.6829
rfoot -4.19746 -13.6444
rtoes -28.6465
lfemur -29.7262 -11.6549 -30.7105
ltibia 34.5681
lfoot -15.0127 -7.44863
ltoes 24.292
278
root 0.445849 16.9575 3.95759 4.55916 -48.2921 10.0748
lowerback -8.31767 0.544934 7.63045
upperback -2.4783 0.121679 -2.30861
thorax 2.09866 0.0516314 -6.72054
lowerneck -10.0262 6.23905 -4.73249
upperneck 46.2412 10.9895 -2.26966
head 19.5334 2.7605 1.55403
rclavicle 4.57205e-015 2.54444e-014
rhumerus -1.82692 27.215 -47.9583
rradius 99.4972
rwrist -38.9103
rhand -4.43917 -42.7938
rfingers 7.12502
rthumb 21.3322 -71.6397
lclavicle 4.57205e-015 2.54444e-014
lhumerus 21.3183 -16.8254 33.933
lradius 77.2185
lwrist 52.4478
lhand -21.5844 -16.5456
lfingers 7.12502
lthumb 4.81012 13.3798
rfemur -10.319 4.69478 -1.38535
rtibia 43.7798
rfoot -4.46556 -13.5888
rtoes -27.6702
lfemur -29.7588 -11.6047 -30.7346
ltibia 34.7021
lfoot -15.1743 -7.31329
ltoes 22.6369
